<svg width="1102" height="1068" viewBox="0 0 1102 1068" fill="none" xmlns="http://www.w3.org/2000/svg">
<g filter="url(#filter0_f_11_3)">
<path fill-rule="evenodd" clip-rule="evenodd" d="M552.227 303.71C589.076 310.472 615.401 339.847 646.95 359.238C675.105 376.543 708.831 386.909 729.048 412.391C749.136 437.711 748.552 471.899 759.995 501.724C773.03 535.698 806.337 565.415 801.529 601.304C796.777 636.786 761.669 660.938 735.268 686.323C710.678 709.966 683.752 730.91 652.111 744.971C620.69 758.934 586.791 770.107 552.227 767.663C518.398 765.271 488.931 746.964 459.224 731.332C430.668 716.305 402.128 701.029 380.824 677.464C359.134 653.473 347.756 623.625 335.294 594.252C321.165 560.949 291.413 526.928 302.375 492.555C313.54 457.545 366.69 452.548 389.797 423.345C413.742 393.081 406.719 344.093 438.175 320.925C469.035 298.196 513.949 296.686 552.227 303.71Z" fill="url(#paint0_linear_11_3)"/>
</g>
<defs>
<filter id="filter0_f_11_3" x="0" y="0" width="1102" height="1068" filterUnits="userSpaceOnUse" color-interpolation-filters="sRGB">
<feFlood flood-opacity="0" result="BackgroundImageFix"/>
<feBlend mode="normal" in="SourceGraphic" in2="BackgroundImageFix" result="shape"/>
<feGaussianBlur stdDeviation="150" result="effect1_foregroundBlur_11_3"/>
</filter>
<linearGradient id="paint0_linear_11_3" x1="503.902" y1="392.651" x2="551.167" y2="767.979" gradientUnits="userSpaceOnUse">
<stop stop-color="#FEFEFE"/>
<stop offset="1" stop-color="#FEFEFE"/>
</linearGradient>
</defs>
</svg>
