<!DOCTYPE svg PUBLIC "-//W3C//DTD SVG 1.1//EN" "http://www.w3.org/Graphics/SVG/1.1/DTD/svg11.dtd">
<!-- Uploaded to: SVG Repo, www.svgrepo.com, Transformed by: SVG Repo Mixer Tools -->
<svg fill="#fefefe" height="64px" width="64px" version="1.1" id="Layer_1" xmlns="http://www.w3.org/2000/svg" xmlns:xlink="http://www.w3.org/1999/xlink" viewBox="0 0 512 512" xml:space="preserve" stroke="#fefefe">
<g id="SVGRepo_bgCarrier" stroke-width="0"/>
<g id="SVGRepo_tracerCarrier" stroke-linecap="round" stroke-linejoin="round"/>
<g id="SVGRepo_iconCarrier"> <g> <g> <path d="M389.565,244.87h-267.13c-27.619,0-50.087,22.468-50.087,50.087v166.956c0,27.619,22.468,50.087,50.087,50.087h267.13 c27.619,0,50.087-22.468,50.087-50.087V294.957C439.652,267.337,417.184,244.87,389.565,244.87z M272.696,373.394v54.731 c0,9.223-7.479,16.696-16.696,16.696s-16.696-7.473-16.696-16.696v-54.731c-9.932-5.792-16.696-16.443-16.696-28.748 c0-18.413,14.978-33.391,33.391-33.391s33.391,14.978,33.391,33.391C289.391,356.951,282.627,367.602,272.696,373.394z"/> </g> </g> <g> <g> <path d="M261.565,0c-82.858,0-150.261,67.408-150.261,150.261v61.217h83.478v-61.217c0-36.826,29.956-66.783,66.783-66.783 c36.826,0,66.783,29.956,66.783,66.783v61.217h83.478v-61.217C411.826,67.408,344.424,0,261.565,0z"/> </g> </g> </g>
</svg>