<svg width="53" height="66" viewBox="0 0 53 66" fill="none" xmlns="http://www.w3.org/2000/svg">
<path d="M0.03125 33.0312V32.5C0.03125 28.0417 0.510417 24 1.46875 20.375C2.44792 16.7292 3.71875 13.5417 5.28125 10.8125C6.84375 8.0625 8.51042 5.79167 10.2812 4C12.0729 2.1875 13.7917 0.885417 15.4375 0.09375L16.9375 4.40625C15.7292 5.30208 14.5208 6.54167 13.3125 8.125C12.125 9.70833 11.0312 11.6562 10.0312 13.9688C9.05208 16.2604 8.26042 18.9479 7.65625 22.0312C7.07292 25.0938 6.78125 28.5625 6.78125 32.4375V33.0938C6.78125 36.9688 7.07292 40.4479 7.65625 43.5312C8.26042 46.5938 9.05208 49.2812 10.0312 51.5938C11.0312 53.9062 12.125 55.8646 13.3125 57.4688C14.5208 59.0938 15.7292 60.3854 16.9375 61.3438L15.4375 65.4688C13.7917 64.6562 12.0729 63.3438 10.2812 61.5312C8.51042 59.7396 6.84375 57.4688 5.28125 54.7188C3.71875 51.9896 2.44792 48.8125 1.46875 45.1875C0.510417 41.5417 0.03125 37.4896 0.03125 33.0312ZM36.5938 32.5V33.0312C36.5938 37.4271 36.0938 41.4375 35.0938 45.0625C34.1146 48.6875 32.8333 51.875 31.25 54.625C29.6875 57.375 27.9896 59.6667 26.1562 61.5C24.3438 63.3333 22.6042 64.6562 20.9375 65.4688L19.4062 61.3438C20.6146 60.4271 21.8125 59.1667 23 57.5625C24.2083 55.9792 25.3021 54.0104 26.2812 51.6562C27.2812 49.3229 28.0729 46.6146 28.6562 43.5312C29.2604 40.4479 29.5625 36.9688 29.5625 33.0938V32.4375C29.5625 28.5625 29.25 25.0833 28.625 22C28.0208 18.8958 27.2083 16.1875 26.1875 13.875C25.1667 11.5417 24.0625 9.57292 22.875 7.96875C21.6875 6.36458 20.5312 5.11458 19.4062 4.21875L20.9375 0.09375C22.6042 0.885417 24.3438 2.19792 26.1562 4.03125C27.9896 5.86458 29.6875 8.16667 31.25 10.9375C32.8333 13.6875 34.1146 16.875 35.0938 20.5C36.0938 24.125 36.5938 28.125 36.5938 32.5Z" fill="#448EEB"/>
<path d="M43.9688 20.625C43.9688 19.4583 44.3646 18.4792 45.1562 17.6875C45.9479 16.875 47.0208 16.4688 48.375 16.4688C49.75 16.4688 50.8229 16.875 51.5938 17.6875C52.3854 18.4792 52.7812 19.4583 52.7812 20.625C52.7812 21.7917 52.3854 22.7708 51.5938 23.5625C50.8229 24.3542 49.75 24.75 48.375 24.75C47.0208 24.75 45.9479 24.3542 45.1562 23.5625C44.3646 22.7708 43.9688 21.7917 43.9688 20.625ZM52.0312 43.75L52 49.125C52 51.25 51.4688 53.4375 50.4062 55.6875C49.3438 57.9375 47.9375 59.7917 46.1875 61.25L42.1562 58.9062C42.7396 57.9688 43.2708 57.0208 43.75 56.0625C44.2292 55.1042 44.6146 54.0833 44.9062 53C45.1979 51.9167 45.3438 50.7188 45.3438 49.4062V43.75H52.0312Z" fill="#FEFEFE"/>
</svg>
